<?xml version="1.0" standalone="no"?>
<!DOCTYPE svg PUBLIC "-//W3C//DTD SVG 20010904//EN"
 "http://www.w3.org/TR/2001/REC-SVG-20010904/DTD/svg10.dtd">
<svg version="1.0" xmlns="http://www.w3.org/2000/svg"
 width="512.000000pt" height="512.000000pt" viewBox="0 0 512.000000 512.000000"
 preserveAspectRatio="xMidYMid meet">
<metadata>
Created by potrace 1.14, written by Peter Selinger 2001-2017
</metadata>
<g transform="translate(0.000000,512.000000) scale(0.100000,-0.100000)"
fill="#000000" stroke="none">
<path d="M2248 5005 c-2 -2 -26 -6 -53 -9 -216 -21 -464 -84 -670 -168 -308
-127 -568 -301 -805 -538 -205 -205 -341 -394 -464 -645 -87 -176 -135 -302
-175 -458 -61 -238 -80 -401 -76 -672 4 -259 33 -448 102 -675 210 -689 741
-1271 1410 -1544 155 -63 348 -122 463 -141 19 -3 48 -8 63 -11 97 -20 227
-29 412 -29 166 0 261 6 347 20 41 7 142 25 163 29 207 42 512 159 715 276 55
32 270 177 280 189 3 3 34 30 70 60 36 30 80 69 98 87 l34 32 241 4 c231 4
245 5 309 30 101 38 173 85 241 158 114 121 167 257 162 421 -2 52 -6 107 -9
122 -30 132 -124 273 -235 352 -40 29 -50 42 -46 58 2 12 11 51 19 87 37 163
49 286 50 495 1 253 -8 343 -58 586 -47 226 -191 558 -337 778 l-79 120 0 336
c0 317 -1 338 -20 375 -22 44 -80 80 -127 80 -47 -1 -110 -35 -130 -72 -15
-27 -19 -64 -23 -207 l-5 -173 -35 31 c-240 215 -583 411 -890 508 -68 21
-230 62 -275 69 -22 3 -44 7 -50 8 -9 3 -32 6 -135 22 -40 6 -477 14 -482 9z
m2467 -3560 c10 -76 -8 -128 -60 -180 -20 -19 -53 -39 -73 -45 -70 -19 -102
-9 -67 20 8 7 15 16 15 19 0 4 29 58 65 121 36 62 68 122 71 133 6 20 7 19 25
-4 10 -13 21 -42 24 -64z"/>
</g>
</svg>
