<?xml version="1.0" standalone="no"?>
<!DOCTYPE svg PUBLIC "-//W3C//DTD SVG 20010904//EN"
 "http://www.w3.org/TR/2001/REC-SVG-20010904/DTD/svg10.dtd">
<svg version="1.0" xmlns="http://www.w3.org/2000/svg"
 width="512.000000pt" height="512.000000pt" viewBox="0 0 512.000000 512.000000"
 preserveAspectRatio="xMidYMid meet">
<metadata>
Created by potrace 1.14, written by Peter Selinger 2001-2017
</metadata>
<g transform="translate(0.000000,512.000000) scale(0.100000,-0.100000)"
fill="#000000" stroke="none">
<path d="M928 5101 c-99 -39 -163 -102 -203 -201 -17 -43 -18 -146 -19 -2305
-1 -1243 2 -2285 7 -2315 16 -109 85 -201 187 -249 l55 -26 1605 0 1605 0 55
27 c65 31 107 68 142 123 54 87 51 -11 53 1840 l1 1720 -700 703 -701 702
-1020 0 c-960 -1 -1023 -2 -1067 -19z"/>
</g>
</svg>
